<?xml version="1.0" standalone="no"?>
<!DOCTYPE svg PUBLIC "-//W3C//DTD SVG 20010904//EN"
 "http://www.w3.org/TR/2001/REC-SVG-20010904/DTD/svg10.dtd">
<svg version="1.0" xmlns="http://www.w3.org/2000/svg"
 width="455.000000pt" height="455.000000pt" viewBox="0 0 455.000000 455.000000"
 preserveAspectRatio="xMidYMid meet">
<metadata>
Created by potrace 1.11, written by Peter Selinger 2001-2013
</metadata>
<g transform="translate(0.000000,455.000000) scale(0.100000,-0.100000)"
fill="#000000" stroke="none">
<path d="M1175 4426 c-18 -13 -19 -27 -16 -214 1 -116 -1 -202 -7 -206 -5 -3
-44 -7 -86 -8 -105 -4 -106 -3 -106 171 0 156 -14 214 -51 219 -39 6 -49 -22
-48 -132 0 -56 4 -136 8 -179 9 -107 3 -115 -93 -115 -46 -1 -78 4 -84 11 -5
7 -12 89 -14 182 -5 183 -16 227 -59 238 -41 11 -52 -2 -45 -52 3 -25 5 -113
5 -196 0 -82 0 -160 1 -172 0 -37 -33 -47 -109 -32 -36 7 -108 13 -159 13 -82
1 -95 -1 -108 -18 -14 -19 -11 -51 7 -70 5 -5 59 -11 121 -12 62 -2 123 -4
136 -4 12 -1 37 -1 56 0 19 1 39 -1 45 -5 6 -3 11 -39 11 -80 0 -69 -2 -75
-22 -80 -43 -11 -193 -36 -241 -42 -50 -5 -75 -29 -63 -60 5 -13 24 -15 115
-11 59 2 114 8 122 14 8 7 28 15 46 18 39 9 48 -5 57 -90 9 -81 -1 -88 -141
-100 -121 -10 -183 -23 -219 -45 -37 -22 -41 -44 -12 -63 16 -10 73 -4 320 30
31 5 37 2 44 -18 9 -25 8 -161 -2 -190 -7 -24 -24 -27 -207 -33 -87 -2 -162
-7 -168 -10 -17 -11 -9 -45 16 -61 22 -14 47 -16 185 -10 114 4 161 3 166 -5
9 -15 5 -162 -5 -171 -10 -11 -153 -30 -243 -32 -52 -2 -84 -8 -102 -19 -31
-21 -32 -28 -8 -56 l17 -21 144 15 c165 19 168 18 181 -57 11 -56 -7 -78 -64
-78 -23 0 -66 -7 -96 -15 -30 -8 -70 -15 -88 -15 -19 0 -49 -7 -68 -16 -27
-13 -34 -22 -34 -44 0 -17 7 -30 17 -34 22 -9 101 3 136 21 19 9 54 13 109 11
73 -3 82 -5 85 -23 28 -181 31 -175 -94 -186 -165 -14 -196 -19 -220 -34 -25
-17 -30 -38 -10 -52 7 -6 74 -6 171 -1 97 5 164 4 169 -1 16 -16 13 -140 -4
-156 -8 -8 -46 -19 -84 -25 -241 -33 -322 -67 -270 -110 15 -12 59 -10 155 10
194 39 190 40 190 -56 0 -97 -9 -111 -72 -117 -91 -9 -242 -34 -275 -47 -57
-21 -55 -75 4 -86 23 -4 45 -1 66 9 32 16 243 44 253 34 12 -12 5 -180 -8
-192 -7 -7 -67 -20 -132 -29 -65 -9 -126 -21 -135 -25 -9 -5 -40 -11 -70 -15
-30 -4 -63 -12 -73 -17 -21 -11 -24 -39 -6 -57 15 -15 88 -16 125 -1 15 7 64
15 108 20 44 5 95 11 113 15 24 5 38 2 52 -11 17 -16 19 -27 13 -94 -3 -42
-10 -82 -16 -88 -5 -7 -28 -13 -51 -13 -23 0 -65 -6 -92 -14 -57 -16 -148 -35
-184 -38 -32 -4 -37 -31 -10 -58 25 -25 40 -24 200 6 53 10 103 15 113 11 14
-5 17 -19 17 -74 0 -37 -4 -73 -8 -80 -4 -7 -71 -19 -157 -28 -177 -20 -262
-41 -277 -69 -9 -16 -6 -23 13 -39 20 -16 33 -17 98 -12 42 4 94 11 116 15 22
5 75 12 119 16 62 5 80 4 87 -7 5 -8 9 -60 7 -117 -2 -115 -6 -122 -74 -122
-20 0 -53 -4 -73 -9 -20 -6 -73 -18 -119 -27 -73 -16 -82 -20 -82 -40 0 -31
22 -50 66 -58 25 -5 41 -3 53 7 23 20 233 42 260 27 22 -11 27 -25 12 -34 -5
-3 -11 -18 -14 -33 -3 -16 -17 -71 -32 -123 -15 -52 -28 -115 -28 -140 -2 -44
-1 -45 27 -43 16 1 42 14 58 29 23 23 28 36 28 76 0 26 6 62 14 80 8 18 22 60
31 93 9 33 18 65 20 71 3 12 120 25 143 16 16 -6 15 -41 -3 -127 -8 -38 -15
-102 -15 -141 0 -66 2 -72 26 -85 24 -12 28 -12 49 12 17 21 24 48 33 128 7
56 12 119 12 139 0 21 7 48 16 61 15 21 22 23 66 18 27 -4 53 -9 58 -12 6 -3
10 -37 10 -74 0 -37 3 -109 6 -159 7 -95 15 -109 55 -97 21 7 27 42 33 200 5
134 9 145 50 146 17 0 41 2 54 3 35 4 45 -17 38 -81 -3 -32 -8 -97 -12 -145
l-6 -87 25 -6 c66 -17 74 4 83 210 6 131 12 145 66 145 15 0 45 7 67 16 22 8
50 14 63 12 21 -3 23 -7 20 -53 -2 -32 2 -61 12 -80 11 -21 16 -59 16 -130 0
-55 4 -106 9 -114 6 -10 19 -12 44 -7 l35 7 -5 102 c-2 56 -9 115 -14 131 -10
33 -12 107 -3 131 10 24 52 42 121 50 57 6 62 5 76 -17 10 -16 16 -65 20 -158
7 -163 18 -202 56 -198 22 3 26 7 23 33 -2 17 -6 101 -8 187 l-6 157 32 16
c18 9 65 19 104 21 l71 5 12 -30 c8 -23 9 -79 2 -212 -6 -100 -8 -188 -5 -195
7 -17 50 -18 64 -2 20 26 34 127 39 283 3 88 10 168 15 177 7 14 21 18 66 18
31 0 62 -4 67 -8 11 -8 22 -180 15 -234 -4 -25 12 -133 22 -161 9 -24 15 -27
37 -22 14 4 27 8 29 10 2 2 6 90 9 197 2 106 6 199 9 206 3 9 22 12 66 10 l63
-3 8 -45 c4 -25 11 -115 16 -200 4 -85 11 -163 15 -172 5 -10 18 -18 31 -18
24 0 25 10 49 373 4 66 18 76 89 70 l59 -6 -7 -31 c-16 -77 -17 -134 -4 -232
11 -93 16 -108 37 -122 18 -11 28 -13 41 -5 18 11 17 10 27 233 4 85 10 162
15 171 16 32 110 29 131 -3 4 -7 8 -53 8 -101 0 -96 17 -225 33 -245 15 -19
35 -14 54 14 15 23 17 49 15 188 -2 88 1 166 5 172 4 6 38 14 74 17 99 9 100
6 107 -192 4 -137 7 -163 23 -177 9 -8 28 -14 41 -12 19 3 24 11 31 58 5 30 6
121 4 203 l-5 147 38 0 c50 0 70 -8 70 -29 0 -9 6 -27 13 -41 18 -34 43 -116
51 -165 4 -22 14 -59 23 -83 14 -37 20 -43 42 -40 21 3 27 10 36 53 13 58 1
125 -33 192 -31 61 -29 106 7 135 16 13 36 38 46 57 15 30 20 32 48 27 18 -4
55 -11 82 -15 28 -5 69 -14 93 -19 38 -9 44 -8 57 11 36 52 7 82 -89 91 -37 4
-85 15 -105 26 l-37 18 11 69 11 68 105 8 c117 8 169 28 169 63 0 36 -26 48
-104 48 -39 0 -96 -4 -127 -8 l-56 -8 -6 68 c-8 81 -5 83 78 85 33 1 78 4 100
5 22 2 73 4 113 3 l73 0 -3 33 c-2 23 -10 36 -28 45 -31 16 -152 17 -237 2
-85 -15 -93 -7 -93 82 0 37 4 79 9 92 l10 25 156 -2 c135 -1 158 1 172 16 20
22 13 50 -17 65 -19 10 -60 12 -165 7 -113 -5 -142 -4 -151 7 -8 9 -9 38 -5
83 6 66 7 70 35 77 39 11 220 14 235 5 20 -13 61 2 61 22 -1 9 -11 30 -24 46
l-24 28 -130 -4 c-72 -3 -136 -2 -142 2 -17 11 -14 201 3 212 7 4 26 5 42 2
17 -3 50 2 74 10 24 9 70 16 103 16 90 0 120 26 84 75 -13 19 -17 19 -140 2
-150 -21 -166 -17 -166 43 0 57 4 58 197 61 77 2 95 5 110 21 13 14 15 25 7
46 l-10 27 -149 0 -150 1 0 74 0 75 35 2 c87 4 194 3 225 -3 29 -5 36 -2 51
21 16 25 16 27 -3 53 -14 18 -29 26 -44 25 -51 -6 -251 -3 -260 3 -6 4 -9 34
-7 72 5 86 14 92 165 92 105 0 113 1 142 26 41 34 42 70 1 88 -24 10 -53 10
-151 -1 -148 -17 -152 -15 -146 68 6 87 12 91 131 86 56 -3 115 -8 131 -12 40
-9 81 21 71 52 -10 32 -58 44 -190 49 -66 3 -123 7 -129 11 -5 3 -7 26 -4 51
8 69 20 74 160 67 124 -7 147 -1 147 35 0 28 -52 40 -169 40 -70 0 -111 4
-119 12 -16 16 -16 65 0 74 15 9 84 15 203 17 l90 2 3 28 c7 55 -8 60 -149 52
-165 -9 -173 -5 -167 77 2 33 10 63 17 67 14 9 187 5 238 -5 24 -5 36 -1 53
16 12 12 20 29 18 38 -6 32 -48 42 -181 42 -71 0 -136 4 -146 10 -27 14 -37
104 -16 136 11 17 18 60 22 137 5 97 4 114 -11 126 -13 11 -22 11 -45 1 -33
-13 -37 -25 -46 -135 -3 -38 -11 -105 -17 -147 -10 -70 -14 -78 -34 -78 -12 0
-31 8 -43 18 -20 15 -21 27 -22 127 0 61 4 124 9 140 13 44 -8 99 -39 103 -42
5 -59 -47 -60 -186 -1 -161 -3 -166 -64 -170 -113 -7 -125 12 -122 202 1 113
-1 139 -15 152 -12 12 -21 14 -34 6 -29 -16 -43 -85 -37 -182 10 -145 -5 -166
-107 -154 -98 11 -100 16 -93 194 6 136 4 152 -12 170 -10 11 -26 20 -35 20
-35 0 -40 -20 -40 -175 0 -104 -4 -155 -12 -163 -17 -17 -179 -16 -202 1 -15
11 -19 35 -23 163 -7 169 -12 194 -46 194 -43 0 -47 -15 -47 -180 0 -108 -4
-160 -12 -168 -16 -16 -103 -15 -117 2 -8 9 -9 58 -4 165 6 137 4 153 -12 171
-22 25 -61 26 -73 3 -5 -10 -12 -83 -16 -162 -4 -95 -10 -147 -18 -152 -18
-12 -127 -9 -134 3 -4 6 -6 76 -6 157 1 150 -8 191 -43 191 -26 0 -30 -24 -31
-178 0 -94 -5 -157 -11 -163 -7 -7 -43 -9 -108 -4 -92 7 -97 9 -107 34 -6 14
-12 85 -13 158 -2 104 -6 138 -19 158 -20 30 -27 31 -52 4 -17 -19 -19 -38
-19 -188 l0 -166 -80 -7 c-44 -4 -92 -9 -106 -12 -52 -10 -64 12 -61 110 1 49
5 117 8 151 6 60 5 63 -20 74 -51 24 -58 1 -72 -232 l-6 -97 -30 -6 c-17 -3
-48 -6 -69 -6 -36 0 -38 2 -45 37 -4 20 -4 91 -1 157 6 136 1 156 -44 156 -41
0 -46 -19 -52 -202 -2 -86 -8 -161 -11 -167 -10 -15 -101 -14 -114 2 -6 7 -12
89 -14 198 -3 193 -9 219 -47 219 -10 0 -26 -6 -36 -14z m1245 -456 c69 -4
147 -13 174 -19 26 -6 94 -11 150 -11 55 1 117 -4 136 -10 19 -5 75 -10 124
-10 78 0 206 -14 451 -50 39 -6 104 -10 146 -9 42 0 85 -4 96 -9 10 -6 50 -13
89 -17 84 -9 122 -32 104 -65 -10 -18 -14 -147 -10 -305 2 -68 1 -107 -4 -180
-16 -259 -26 -572 -31 -1050 -9 -719 -29 -1271 -50 -1345 -22 -79 -34 -88
-140 -93 -49 -3 -130 -12 -180 -21 -59 -10 -179 -17 -350 -20 -225 -4 -373
-13 -490 -30 -16 -3 -104 -7 -195 -11 -119 -5 -185 -12 -235 -26 -92 -27 -229
-48 -339 -54 -48 -3 -93 -8 -98 -12 -6 -3 -47 -9 -91 -14 -44 -4 -85 -13 -90
-18 -6 -6 -34 -11 -61 -11 -52 0 -185 -21 -243 -39 -44 -13 -660 -14 -668 0
-19 30 -9 903 13 1119 6 58 13 125 16 150 11 112 16 214 16 330 -1 263 3 808
7 870 17 305 23 529 19 656 -6 135 -4 154 11 173 25 31 120 50 303 62 85 6
196 15 245 20 50 5 146 12 215 17 69 4 132 12 139 17 8 4 98 10 200 11 102 2
229 7 281 12 52 5 122 7 155 5 33 -3 116 -8 185 -13z"/>
<path d="M1555 3700 c-104 -3 -235 -12 -290 -19 -258 -32 -286 -43 -285 -114
0 -23 1 -94 1 -157 0 -63 2 -117 4 -120 2 -3 7 -121 11 -261 3 -139 8 -256 9
-259 2 -3 -1 -104 -7 -224 -6 -146 -6 -240 1 -280 7 -45 6 -106 -5 -231 -8
-93 -19 -233 -24 -310 -5 -77 -11 -156 -14 -175 -7 -45 -25 -367 -29 -532 -5
-165 -7 -164 142 -162 118 2 378 19 516 34 50 5 151 14 225 20 299 23 447 37
456 42 5 3 119 9 254 13 135 3 274 12 310 18 79 14 336 12 445 -3 46 -7 119
-9 170 -6 90 7 90 7 128 48 36 41 37 43 37 124 0 46 4 93 8 106 5 13 5 70 1
127 -7 88 -12 335 -22 1071 -2 101 11 346 19 383 3 12 10 135 15 272 5 145 16
282 25 326 16 79 12 161 -9 190 -19 25 -49 37 -108 44 -30 4 -81 13 -114 20
-69 16 -464 22 -1025 16 -190 -2 -415 -2 -500 1 -85 3 -240 2 -345 -2z m1270
-734 c143 -14 142 -13 125 -254 -14 -205 -13 -424 3 -687 14 -210 14 -311 2
-323 -4 -4 -232 -7 -508 -8 -276 0 -550 -4 -609 -9 -80 -6 -108 -5 -108 3 0 7
-1 15 -2 20 -13 53 -14 116 -8 295 7 219 -9 600 -29 706 -25 127 -6 234 45
247 77 20 912 27 1089 10z"/>
<path d="M2416 2703 c-2 -3 -101 -6 -218 -7 -242 -3 -268 -9 -269 -60 -1 -57
7 -560 11 -608 0 -4 14 -15 31 -23 35 -18 202 -24 329 -12 100 10 419 12 447
3 35 -11 47 22 30 86 -8 29 -20 82 -27 118 -6 36 -24 106 -40 155 -16 50 -36
126 -45 170 -9 44 -18 90 -21 103 -6 31 -60 62 -109 62 -22 0 -57 4 -77 9 -20
5 -39 7 -42 4z m119 -87 c11 -4 28 -67 40 -141 8 -55 75 -284 92 -318 8 -16
13 -41 11 -57 l-3 -30 -310 -5 c-170 -3 -315 -2 -322 3 -20 13 -43 516 -24
535 6 6 48 14 94 17 82 5 403 2 422 -4z"/>
</g>
</svg>
